<svg xmlns="http://www.w3.org/2000/svg" width="640" height="420">
<text x="20" y="24" font-size="16">B4 Non-deny (allow+throttle) Precision-Recall</text>
<line x1="50" y1="370" x2="590" y2="370" stroke="black"/>
<line x1="50" y1="370" x2="50" y2="50" stroke="black"/>
<polyline fill="none" stroke="#1f77b4" stroke-width="2" points="50.0,370.0 50.1,50.0 50.8,50.0 51.8,50.0 52.7,50.0 53.4,50.0 54.2,50.0 55.4,50.0 58.1,50.0 61.6,50.0 64.9,50.0 69.5,50.0 73.9,50.0 76.8,50.0 79.9,50.0 83.6,50.0 86.9,50.0 89.6,50.0 92.8,50.0 94.6,50.0 97.1,50.0 100.4,50.0 103.6,50.0 107.3,50.0 110.2,50.0 113.3,50.0 116.6,50.0 120.4,50.0 123.5,50.0 127.0,50.0 130.5,50.0 133.9,50.0 137.2,50.0 140.9,50.0 143.6,50.0 146.9,50.0 153.2,50.0 159.6,50.0 162.3,50.0 164.6,50.0 166.9,50.0 170.6,50.0 174.3,50.0 178.7,50.0 181.6,50.0 187.0,50.0 189.7,50.0 194.7,50.0 198.0,50.0 202.2,50.0 208.4,50.0 213.6,50.0 217.9,50.0 220.0,50.0 222.5,50.0 224.4,50.0 226.9,50.0 229.3,50.0 232.9,50.0 236.0,50.0 239.7,50.0 242.4,50.0 245.1,50.0 249.3,50.0 252.4,50.0 255.3,50.0 258.2,50.0 260.3,50.0 266.1,50.0 272.1,50.0 276.7,50.0 282.1,50.0 289.3,50.0 295.6,50.0 299.6,50.0 310.1,50.0 321.4,50.0 331.3,50.0 339.7,50.0 350.6,50.0 361.8,50.0 375.4,50.0 381.0,50.0 386.5,50.0 394.6,50.0 407.8,50.0 416.5,50.0 422.9,50.0 429.7,50.0 438.9,50.0 451.1,50.0 464.3,50.0 470.7,50.0 479.1,50.0 486.6,50.0 488.7,50.0 490.7,50.0 492.5,50.0 494.1,50.0 497.3,50.0 499.1,50.0 501.0,50.0 502.4,50.0 504.9,50.0 507.6,50.0 510.5,50.0 512.5,50.0 514.8,50.0 516.1,50.0 518.0,50.0 520.4,50.0 521.9,50.0 523.5,50.0 526.3,50.0 527.6,50.0 530.1,50.0 531.8,50.0 534.1,50.0 536.8,50.0 539.9,50.0 542.8,50.0 545.6,50.0 547.3,50.0 550.9,50.0 555.0,50.0 556.7,50.0 558.9,50.0 562.0,50.0 564.3,50.0 567.6,50.0 569.7,50.0 571.6,50.0 574.4,50.0 576.7,50.0 578.2,50.0 580.7,50.0 582.4,50.0 584.2,50.0 585.1,50.0 585.8,50.0 586.6,50.0 587.5,50.0 587.6,50.4 587.6,51.0 587.6,51.7 587.6,52.5 587.6,53.2 587.6,53.9 587.6,54.6 587.6,55.5 587.6,56.1 587.8,56.7 587.9,57.2 588.2,58.0 588.2,58.8 588.2,59.5 588.5,60.0 588.5,60.8 588.5,61.5 588.7,62.3 588.8,63.1 588.9,63.6 588.9,64.1 589.3,64.5 590.0,64.4 590.0,66.0 590.0,67.2 590.0,69.3 590.0,71.8 590.0,75.2 590.0,83.7 590.0,93.2 590.0,100.4 590.0,108.7 590.0,119.2 590.0,129.7 590.0,141.6 590.0,150.1 590.0,159.4 590.0,166.5 590.0,173.5 590.0,177.9 590.0,182.1 590.0,186.2 590.0,193.0 590.0,198.8 590.0,203.4 590.0,207.3 590.0,209.6 590.0,213.7 590.0,217.5 590.0,220.7 590.0,223.9 590.0,226.8 590.0,230.3 590.0,233.1 590.0,235.7 590.0,237.9 590.0,239.1 590.0,239.4 590.0,239.7 590.0,240.0 590.0,240.2 590.0,240.5 590.0,240.8 590.0,253.1"/>
<line x1="450" y1="35" x2="470" y2="35" stroke="#1f77b4" stroke-width="2"/>
<text x="474" y="39" font-size="11">Non-deny PR</text>
</svg>