<svg xmlns="http://www.w3.org/2000/svg" width="640" height="420">
<text x="20" y="24" font-size="16">B4 Burst Tradeoff (ASR_allow/ASR_non_deny/cost/throttle)</text>
<line x1="50" y1="370" x2="590" y2="370" stroke="black"/>
<line x1="50" y1="370" x2="50" y2="50" stroke="black"/>
<text x="320" y="410" font-size="12">Load level</text>
<text x="10" y="210" font-size="12" transform="rotate(-90 10,210)">Metric value</text>
<polyline fill="none" stroke="#1f77b4" stroke-width="2" points="50.0,135.0 230.0,115.6 410.0,139.8 590.0,217.4"/>
<line x1="450" y1="35" x2="470" y2="35" stroke="#1f77b4" stroke-width="2"/>
<text x="474" y="39" font-size="11">ASR_allow</text>
<polyline fill="none" stroke="#d62728" stroke-width="2" points="50.0,50.0 230.0,50.0 410.0,50.0 590.0,50.0"/>
<line x1="450" y1="51" x2="470" y2="51" stroke="#d62728" stroke-width="2"/>
<text x="474" y="55" font-size="11">ASR_non_deny</text>
<polyline fill="none" stroke="#2ca02c" stroke-width="2" points="50.0,316.6 230.0,335.9 410.0,311.7 590.0,234.1"/>
<line x1="450" y1="67" x2="470" y2="67" stroke="#2ca02c" stroke-width="2"/>
<text x="474" y="71" font-size="11">Throttle</text>
<polyline fill="none" stroke="#9467bd" stroke-width="2" points="50.0,370.0 230.0,363.1 410.0,353.9 590.0,340.6"/>
<line x1="450" y1="83" x2="470" y2="83" stroke="#9467bd" stroke-width="2"/>
<text x="474" y="87" font-size="11">Cost/1000</text>
</svg>