<svg xmlns="http://www.w3.org/2000/svg" width="640" height="420">
<text x="20" y="24" font-size="16">B4 Mixed-load Contention Tradeoff (annotated)</text>
<line x1="50" y1="370" x2="590" y2="370" stroke="black"/>
<line x1="50" y1="370" x2="50" y2="50" stroke="black"/>
<polyline fill="none" stroke="#1f77b4" stroke-width="2" points="590.0,83.1 117.4,194.7 87.6,268.9 65.3,329.5 50.0,370.0"/>
<line x1="450" y1="35" x2="470" y2="35" stroke="#1f77b4" stroke-width="2"/>
<text x="474" y="39" font-size="11">attack ASR_non_deny</text>
<polyline fill="none" stroke="#d62728" stroke-width="2" points="590.0,50.0 117.4,181.2 87.6,268.9 65.3,329.5 50.0,370.0"/>
<line x1="450" y1="51" x2="470" y2="51" stroke="#d62728" stroke-width="2"/>
<text x="474" y="55" font-size="11">benign SR</text>
<circle cx="590.0" cy="83.1" r="3" fill="#111"/>
<text x="595.0" y="78.1" font-size="10">x1.00</text>
<circle cx="117.4" cy="194.7" r="3" fill="#111"/>
<text x="122.4" y="189.7" font-size="10">x0.70</text>
<circle cx="87.6" cy="268.9" r="3" fill="#111"/>
<text x="92.6" y="263.9" font-size="10">x0.50</text>
<circle cx="65.3" cy="329.5" r="3" fill="#111"/>
<text x="70.3" y="324.5" font-size="10">x0.35</text>
<circle cx="50.0" cy="370.0" r="3" fill="#111"/>
<text x="55.0" y="365.0" font-size="10">x0.25</text>
</svg>