<svg xmlns="http://www.w3.org/2000/svg" width="640" height="420">
<text x="20" y="24" font-size="16">B4 Precision-Recall</text>
<line x1="50" y1="370" x2="590" y2="370" stroke="black"/>
<line x1="50" y1="370" x2="50" y2="50" stroke="black"/>
<text x="320" y="410" font-size="12">Recall</text>
<text x="10" y="210" font-size="12" transform="rotate(-90 10,210)">Precision</text>
<polyline fill="none" stroke="#1f77b4" stroke-width="2" points="50.0,370.0 57.2,50.0 76.0,50.0 91.8,50.0 107.5,50.0 120.6,50.0 131.3,50.0 142.8,50.0 155.7,50.0 172.5,50.0 184.2,50.0 201.0,50.0 212.7,50.0 221.1,50.0 241.5,50.0 259.4,50.0 277.4,50.0 291.0,50.0 307.6,50.0 318.4,50.0 330.5,50.0 347.1,50.0 356.2,50.0 366.7,50.0 378.7,50.0 393.4,50.0 404.4,50.0 409.5,50.0 410.5,50.0 411.6,50.0 412.6,50.0 413.7,50.0 414.4,50.0 415.1,50.0 415.4,50.0 416.3,50.0 417.2,50.0 418.6,50.2 419.8,50.2 420.3,50.2 420.8,50.3 422.6,50.3 424.3,50.3 425.4,50.3 426.1,50.3 427.3,50.4 429.4,50.4 431.1,50.4 432.4,50.6 433.2,50.6 434.1,50.6 434.5,50.6 435.0,50.6 435.3,50.6 436.0,50.7 436.4,50.7 436.6,50.9 437.1,51.2 437.6,51.4 438.0,51.6 439.0,51.6 440.1,51.6 440.9,51.6 443.2,51.6 444.4,51.8 445.7,52.0 447.4,52.0 449.1,52.1 450.0,52.1 451.8,52.2 453.3,52.2 454.6,52.2 455.8,52.3 456.5,52.5 457.4,52.5 458.4,52.6 459.1,52.6 460.3,52.6 461.0,52.6 462.4,52.6 463.0,52.6 464.0,52.5 465.2,52.5 466.8,52.5 468.2,52.7 470.1,52.6 470.6,52.6 471.0,52.6 471.3,52.8 471.7,52.8 471.9,52.9 472.4,52.9 472.9,52.9 473.4,53.1 474.3,53.1 475.0,53.3 475.7,53.5 476.4,53.5 477.3,53.5 477.8,53.6 478.9,53.6 479.4,53.6 480.3,53.6 481.0,53.7 482.0,53.7 483.0,53.7 485.7,53.8 486.0,53.8 487.1,53.8 489.2,53.9 491.6,53.9 493.5,54.0 494.8,54.0 497.9,53.9 499.3,53.9 500.5,53.9 502.6,53.9 503.7,53.9 506.6,54.0 507.5,54.0 508.2,54.0 509.4,54.0 510.3,54.2 511.4,54.2 512.2,54.3 514.0,54.3 515.7,54.4 517.3,54.5 518.0,54.5 518.3,54.5 518.3,54.7 518.3,54.9 518.3,55.3 518.3,55.7 518.3,56.1 518.3,56.4 518.3,57.0 518.3,57.5 518.3,58.3 518.3,58.8 518.3,59.5 518.3,60.7 518.3,61.6 518.3,63.4 518.3,64.8 518.3,67.2 518.3,69.8 518.3,72.5 518.3,76.2 518.3,81.1 518.3,85.5 518.3,89.1 518.3,91.8 518.3,94.8 518.3,97.9 518.3,100.7 518.3,103.2 518.3,107.2 518.3,110.9 518.3,113.8 518.3,117.7 518.3,120.7 518.3,123.0 518.5,125.4 518.5,128.4 519.2,131.0 519.7,133.6 520.4,135.6 522.0,137.8 522.9,139.6 523.1,142.0 523.6,143.9 523.8,146.5 524.6,147.8 525.0,149.4 525.3,151.5 526.6,154.2 526.6,156.1 527.1,157.8 527.1,159.7 527.3,161.4 527.3,163.1 527.3,165.1 527.6,166.3 528.3,167.8 530.6,168.9 530.6,169.9 531.1,171.3 531.3,172.6 531.5,174.2 532.2,175.7 532.9,177.7 532.9,179.2 532.9,180.6 533.2,181.9 533.4,183.7 533.9,185.3 533.9,186.7 533.9,188.3 534.3,190.2 534.3,191.7 534.6,193.3 536.2,195.1 537.7,195.9 539.0,197.0 539.8,198.3 541.2,199.5 542.6,201.0 543.9,201.8 544.6,202.7 544.7,204.1 546.1,205.2 546.3,206.2 546.3,207.2 546.8,208.2 547.2,209.0 548.1,209.7 549.1,210.5 550.0,211.1 551.0,211.9 551.6,212.5 551.9,213.4 552.6,214.1 553.1,214.8 554.0,215.3 554.7,216.3 554.7,217.7 555.6,218.3 556.4,219.2 557.0,220.0 558.5,220.6 558.9,221.5 560.1,222.2 561.3,222.5 561.5,223.3 562.4,223.9 562.6,224.6 563.8,225.1 564.1,225.8 564.5,226.3 564.8,226.9 565.4,227.4 567.6,227.6 567.8,228.1 568.7,228.3 569.7,228.5 570.3,228.8 570.6,228.9 572.2,228.7 572.7,228.6 573.4,228.5 574.3,228.4 575.1,228.3 576.0,228.1 577.1,228.0 578.6,227.7 579.2,227.7 580.0,227.5 581.1,227.4 581.8,227.3 584.2,226.9 585.5,226.7 587.0,226.5 587.6,226.4 588.1,226.4 588.8,226.2 590.0,226.1 590.0,226.1"/>
<line x1="450" y1="35" x2="470" y2="35" stroke="#1f77b4" stroke-width="2"/>
<text x="474" y="39" font-size="11">PR</text>
</svg>