<svg xmlns="http://www.w3.org/2000/svg" width="640" height="420">
<text x="20" y="24" font-size="16">B4 Precision-Recall</text>
<line x1="50" y1="370" x2="590" y2="370" stroke="black"/>
<line x1="50" y1="370" x2="50" y2="50" stroke="black"/>
<text x="320" y="410" font-size="12">Recall</text>
<text x="10" y="210" font-size="12" transform="rotate(-90 10,210)">Precision</text>
<polyline fill="none" stroke="#1f77b4" stroke-width="2" points="50.0,370.0 62.3,50.0 72.1,50.0 81.4,50.0 87.5,50.0 98.9,50.0 110.2,50.0 120.5,50.0 131.3,50.0 139.5,50.0 151.8,50.0 159.0,50.0 167.3,50.0 176.5,50.0 187.3,50.0 198.1,50.0 209.4,50.0 221.3,50.0 235.1,50.0 244.9,50.0 254.2,50.0 263.9,50.0 272.7,50.0 285.0,50.0 293.3,50.0 303.0,50.0 316.9,50.0 331.8,50.0 344.7,50.0 359.1,50.0 368.9,50.0 381.7,50.0 392.0,50.0 399.2,50.0 409.0,50.0 422.3,50.0 429.5,50.0 435.2,50.0 447.0,50.0 452.2,50.0 461.9,50.0 475.3,50.0 484.6,50.0 490.7,50.0 498.5,50.0 506.7,50.0 519.0,50.0 526.7,50.0 540.1,50.0 551.4,50.0 562.7,50.0 568.4,50.0 568.9,50.0 569.4,50.0 569.9,50.0 569.9,50.3 569.9,50.6 569.9,50.9 569.9,51.3 569.9,51.6 569.9,51.9 569.9,52.2 569.9,52.8 569.9,53.4 569.9,53.8 569.9,54.4 569.9,54.7 569.9,55.0 569.9,55.3 569.9,55.6 569.9,55.9 569.9,56.2 569.9,56.5 569.9,56.8 569.9,57.1 569.9,57.4 570.5,57.4 570.5,57.7 570.5,58.3 571.0,58.3 571.5,58.3 571.5,58.6 572.0,58.6 572.5,58.6 573.0,58.9 573.0,59.2 573.0,59.5 573.5,59.5 573.5,59.8 573.5,60.0 574.1,60.0 574.1,60.6 574.1,60.9 574.6,60.9 574.6,61.2 574.6,61.5 575.1,61.5 575.6,61.5 575.6,61.8 576.1,61.8 576.6,61.7 577.1,61.7 577.7,61.7 578.2,61.7 578.7,61.7 579.2,61.7 580.2,61.7 580.7,61.7 581.3,61.6 581.8,61.6 582.3,61.6 582.8,61.6 583.3,61.6 583.8,61.6 583.8,61.9 583.8,62.4 583.8,63.0 583.8,63.6 583.8,65.5 583.8,67.5 583.8,68.6 583.8,69.4 583.8,70.8 583.8,71.6 583.8,73.2 583.8,75.3 583.8,79.4 583.8,82.2 583.8,85.4 583.8,87.8 583.8,90.4 583.8,91.3 583.8,92.3 583.8,94.6 583.8,96.4 583.8,97.7 583.8,100.0 583.8,101.0 583.8,103.2 583.8,106.2 583.8,107.0 583.8,108.7 583.8,110.5 583.8,112.5 583.8,114.3 583.8,115.3 583.8,116.6 583.8,118.9 583.8,120.4 583.8,123.6 583.8,125.0 583.8,126.5 583.8,127.5 583.8,129.0 583.8,130.3 583.8,131.7 583.8,133.8 583.8,135.3 583.8,136.7 583.8,138.0 583.8,139.3 583.8,141.2 583.8,142.6 583.8,143.9 583.8,145.1 583.8,146.6 583.8,147.5 583.8,148.7 583.8,149.1 583.8,149.7 583.8,151.2 583.8,152.2 583.8,153.6 583.8,154.9 583.8,156.0 583.8,156.9 583.8,157.5 583.8,158.6 583.8,159.9 583.8,161.0 583.8,162.7 583.8,164.2 583.8,165.0 583.8,166.0 583.8,167.0 583.8,167.8 583.8,168.4 583.8,169.1 583.8,170.4 583.8,170.9 583.8,172.2 583.8,173.9 583.8,175.1 583.8,175.6 583.8,176.5 583.8,177.7 583.8,178.3 583.8,180.0 583.8,181.3 583.8,181.7 583.8,182.8 583.8,183.7 583.8,184.5 583.8,185.5 583.8,186.1 583.8,187.0 583.8,187.9 583.8,188.7 583.8,189.7 583.8,190.7 583.8,191.1 583.8,192.0 583.8,193.1 583.8,193.9 583.8,194.3 583.8,194.5 583.8,195.5 583.8,196.4 583.8,197.0 583.8,197.9 583.8,198.9 583.8,199.8 583.8,200.6 583.8,201.5 583.8,202.2 583.8,202.7 583.8,203.6 583.8,204.3 583.8,205.2 583.8,206.0 583.8,206.3 583.8,207.2 583.8,208.2 583.8,209.1 583.8,209.5 583.8,210.2 583.8,210.6 583.8,211.1 583.8,211.8 583.8,212.7 583.8,213.2 583.8,214.1 583.8,214.9 583.8,215.4 583.8,216.4 583.8,217.0 583.8,217.3 583.8,218.1 583.8,218.5 583.8,219.0 583.8,219.9 583.8,220.7 583.8,221.4 583.8,221.9 583.8,222.3 583.8,222.9 583.8,223.5 583.8,224.1 583.8,224.5 583.8,225.0 583.8,225.5 583.8,226.0 583.8,226.5 583.8,227.1 583.8,227.6 583.8,228.2 583.8,228.7 583.8,229.1 583.8,229.7 583.8,230.4 583.8,230.8 583.8,231.5 583.8,231.9 583.8,232.3 583.8,232.7 583.8,233.1 583.8,233.5 583.8,234.1 583.8,234.6 583.8,235.2 583.8,235.7 583.8,236.3 583.8,237.0 583.8,237.3 583.8,237.9 583.8,238.5 583.8,239.0 583.8,239.7 583.8,239.9 583.8,240.4 583.8,240.8 583.8,241.3 583.8,241.7 583.8,242.3 583.8,242.6 583.8,243.0 583.8,243.4 583.8,243.9 583.8,244.3 583.8,244.9 583.8,245.4 583.8,245.5 583.8,245.9 583.8,246.4 583.8,246.9 583.8,247.4 583.8,247.8 583.8,248.2 583.8,248.4 583.8,248.9 583.8,249.0 583.8,249.5 583.8,249.7 583.8,250.0 583.8,250.3 583.8,250.7 583.8,251.1 583.8,251.3 583.8,251.5 583.8,251.9 583.8,252.0 583.8,252.1 583.8,252.4 583.8,252.6 583.8,252.8 583.8,252.8 584.3,252.8 584.3,252.8 584.9,252.7 585.4,252.7 585.9,252.6 586.4,252.5 586.9,252.4 587.4,252.4 587.9,252.3 588.5,252.2 589.0,252.2 589.0,252.2 589.5,252.1 590.0,252.1 590.0,252.1"/>
<line x1="450" y1="35" x2="470" y2="35" stroke="#1f77b4" stroke-width="2"/>
<text x="474" y="39" font-size="11">PR</text>
</svg>