<svg xmlns="http://www.w3.org/2000/svg" width="640" height="420">
<text x="20" y="24" font-size="16">B4 Precision-Recall</text>
<line x1="50" y1="370" x2="590" y2="370" stroke="black"/>
<line x1="50" y1="370" x2="50" y2="50" stroke="black"/>
<polyline fill="none" stroke="#1f77b4" stroke-width="2" points="50.0,370.0 56.9,50.0 57.2,50.0 57.5,50.0 57.9,50.0 58.3,50.0 58.7,50.0 59.0,50.0 59.3,50.0 59.6,50.0 60.0,50.0 60.3,50.0 60.7,50.0 60.9,50.0 61.5,50.0 62.5,50.0 63.5,50.0 64.2,50.0 64.7,50.0 65.4,50.0 66.3,50.0 68.1,50.0 70.8,50.0 73.3,50.0 76.6,50.0 80.1,50.0 82.5,50.0 85.1,50.0 87.6,50.0 90.5,50.0 92.4,50.0 95.8,50.0 97.7,50.0 100.6,50.0 103.9,50.0 106.1,50.0 109.1,50.0 111.7,50.0 114.0,50.0 116.8,50.0 119.1,50.0 123.8,50.0 127.8,50.0 131.1,50.0 133.0,50.0 136.9,50.0 140.8,50.0 144.1,50.0 147.3,50.0 151.8,50.0 156.4,50.0 159.7,50.0 163.0,50.0 169.2,50.0 173.9,50.0 178.1,50.0 179.7,50.0 181.7,50.0 183.7,50.0 186.4,50.0 192.7,50.0 195.7,50.0 198.6,50.0 203.0,50.0 207.6,50.0 212.1,50.0 216.9,50.0 219.2,50.0 223.1,50.0 228.2,50.0 233.7,50.0 237.4,50.0 242.2,50.0 244.1,50.0 245.9,50.0 248.8,50.0 251.1,50.0 253.1,50.0 255.1,50.0 258.6,50.0 260.9,50.0 263.4,50.0 266.1,50.0 268.2,50.0 271.4,50.0 273.9,50.0 277.4,50.0 280.1,50.0 282.6,50.0 286.0,50.0 288.3,50.0 293.9,50.0 302.4,50.0 310.4,50.0 320.7,50.0 329.3,50.0 335.7,50.0 339.4,50.0 346.8,50.0 358.3,50.0 371.5,50.0 385.5,50.0 396.4,50.0 408.2,50.0 417.2,50.0 425.2,50.0 440.0,50.0 447.8,50.0 456.6,50.0 465.5,50.0 477.6,50.0 489.8,50.0 502.6,50.0 511.4,50.0 513.9,50.0 515.5,50.0 516.9,50.0 519.0,50.0 520.7,50.0 523.5,50.0 525.8,50.0 527.3,50.0 528.1,50.0 530.6,50.0 532.3,50.0 532.8,50.0 535.9,50.0 536.6,50.0 537.8,50.0 538.5,50.0 539.3,50.0 540.7,50.0 541.6,50.0 542.4,50.0 544.4,50.0 545.3,50.0 546.5,50.0 548.3,50.0 550.0,50.0 552.3,50.0 553.7,50.0 556.2,50.0 558.2,50.0 560.5,50.0 562.7,50.0 563.8,50.0 566.4,50.0 569.2,50.0 570.5,50.0 572.4,50.0 574.7,50.0 576.6,50.0 578.2,50.0 580.2,50.0 581.8,50.0 582.9,50.0 584.5,50.0 585.7,50.0 586.8,50.0 587.2,50.0 587.4,50.0 587.7,50.0 588.0,50.0 588.3,50.0 588.6,50.0 588.9,50.0 589.2,50.0 589.3,50.1 589.3,50.3 589.3,50.5 589.3,50.9 589.3,51.4 589.3,51.8 589.3,52.1 589.3,52.6 589.3,53.0 589.3,53.3 589.3,53.7 589.4,54.1 589.4,54.4 589.5,54.8 589.5,55.4 589.5,55.7 589.6,56.0 589.6,56.4 589.6,56.8 589.7,57.4 589.7,57.8 589.7,58.1 589.7,58.4 589.8,58.5 589.9,58.6 590.0,59.8 590.0,61.2 590.0,63.9 590.0,66.4 590.0,72.9 590.0,80.2 590.0,86.7 590.0,95.2 590.0,105.5 590.0,115.6 590.0,123.7 590.0,131.3 590.0,138.0 590.0,142.8 590.0,147.3 590.0,154.2 590.0,160.5 590.0,165.3 590.0,168.5 590.0,173.3 590.0,177.5 590.0,181.1 590.0,184.8 590.0,188.9 590.0,192.0 590.0,195.0 590.0,196.4 590.0,196.8 590.0,197.2 590.0,197.5 590.0,197.9 590.0,210.0"/>
<line x1="450" y1="35" x2="470" y2="35" stroke="#1f77b4" stroke-width="2"/>
<text x="474" y="39" font-size="11">PR</text>
</svg>