<svg xmlns="http://www.w3.org/2000/svg" width="1200" height="420">
<text x="20" y="20" font-size="16">Latency p95 (mean ms)</text>
<line x1="40" y1="380" x2="1160" y2="380" stroke="black"/>
<rect x="40" y="110" width="17" height="270" fill="#4682b4"/>
<text x="40" y="395" font-size="8" transform="rotate(60 40,395)">B0-S1_key_leak</text>
<rect x="58" y="110" width="17" height="270" fill="#4682b4"/>
<rect x="76" y="108" width="17" height="272" fill="#4682b4"/>
<rect x="94" y="104" width="17" height="276" fill="#4682b4"/>
<rect x="112" y="111" width="17" height="269" fill="#4682b4"/>
<rect x="130" y="50" width="17" height="330" fill="#4682b4"/>
<rect x="148" y="110" width="17" height="270" fill="#4682b4"/>
<text x="148" y="395" font-size="8" transform="rotate(60 148,395)">B0-S4_burst_L1</text>
<rect x="166" y="104" width="17" height="276" fill="#4682b4"/>
<rect x="184" y="99" width="17" height="281" fill="#4682b4"/>
<rect x="202" y="94" width="17" height="286" fill="#4682b4"/>
<rect x="220" y="99" width="17" height="281" fill="#4682b4"/>
<rect x="238" y="118" width="17" height="262" fill="#4682b4"/>
<rect x="256" y="109" width="17" height="271" fill="#4682b4"/>
<text x="256" y="395" font-size="8" transform="rotate(60 256,395)">B1-S1_key_leak</text>
<rect x="274" y="109" width="17" height="271" fill="#4682b4"/>
<rect x="292" y="107" width="17" height="273" fill="#4682b4"/>
<rect x="310" y="103" width="17" height="277" fill="#4682b4"/>
<rect x="328" y="111" width="17" height="269" fill="#4682b4"/>
<rect x="346" y="93" width="17" height="287" fill="#4682b4"/>
<rect x="364" y="111" width="17" height="269" fill="#4682b4"/>
<text x="364" y="395" font-size="8" transform="rotate(60 364,395)">B1-S4_burst_L1</text>
<rect x="382" y="105" width="17" height="275" fill="#4682b4"/>
<rect x="400" y="98" width="17" height="282" fill="#4682b4"/>
<rect x="418" y="94" width="17" height="286" fill="#4682b4"/>
<rect x="436" y="115" width="17" height="265" fill="#4682b4"/>
<rect x="454" y="127" width="17" height="253" fill="#4682b4"/>
<rect x="472" y="109" width="17" height="271" fill="#4682b4"/>
<text x="472" y="395" font-size="8" transform="rotate(60 472,395)">B2-S1_key_leak</text>
<rect x="490" y="109" width="17" height="271" fill="#4682b4"/>
<rect x="508" y="108" width="17" height="272" fill="#4682b4"/>
<rect x="526" y="104" width="17" height="276" fill="#4682b4"/>
<rect x="544" y="110" width="17" height="270" fill="#4682b4"/>
<rect x="562" y="93" width="17" height="287" fill="#4682b4"/>
<rect x="580" y="110" width="17" height="270" fill="#4682b4"/>
<text x="580" y="395" font-size="8" transform="rotate(60 580,395)">B2-S4_burst_L1</text>
<rect x="598" y="104" width="17" height="276" fill="#4682b4"/>
<rect x="616" y="99" width="17" height="281" fill="#4682b4"/>
<rect x="634" y="94" width="17" height="286" fill="#4682b4"/>
<rect x="652" y="115" width="17" height="265" fill="#4682b4"/>
<rect x="670" y="118" width="17" height="262" fill="#4682b4"/>
<rect x="688" y="109" width="17" height="271" fill="#4682b4"/>
<text x="688" y="395" font-size="8" transform="rotate(60 688,395)">B3-S1_key_leak</text>
<rect x="706" y="369" width="17" height="11" fill="#4682b4"/>
<rect x="724" y="370" width="17" height="10" fill="#4682b4"/>
<rect x="742" y="369" width="17" height="11" fill="#4682b4"/>
<rect x="760" y="369" width="17" height="11" fill="#4682b4"/>
<rect x="778" y="93" width="17" height="287" fill="#4682b4"/>
<rect x="796" y="110" width="17" height="270" fill="#4682b4"/>
<text x="796" y="395" font-size="8" transform="rotate(60 796,395)">B3-S4_burst_L1</text>
<rect x="814" y="104" width="17" height="276" fill="#4682b4"/>
<rect x="832" y="97" width="17" height="283" fill="#4682b4"/>
<rect x="850" y="93" width="17" height="287" fill="#4682b4"/>
<rect x="868" y="114" width="17" height="266" fill="#4682b4"/>
<rect x="886" y="118" width="17" height="262" fill="#4682b4"/>
<rect x="904" y="124" width="17" height="256" fill="#4682b4"/>
<text x="904" y="395" font-size="8" transform="rotate(60 904,395)">B4-S1_key_leak</text>
<rect x="922" y="369" width="17" height="11" fill="#4682b4"/>
<rect x="940" y="369" width="17" height="11" fill="#4682b4"/>
<rect x="958" y="369" width="17" height="11" fill="#4682b4"/>
<rect x="976" y="368" width="17" height="12" fill="#4682b4"/>
<rect x="994" y="126" width="17" height="254" fill="#4682b4"/>
<rect x="1012" y="127" width="17" height="253" fill="#4682b4"/>
<text x="1012" y="395" font-size="8" transform="rotate(60 1012,395)">B4-S4_burst_L1</text>
<rect x="1030" y="123" width="17" height="257" fill="#4682b4"/>
<rect x="1048" y="123" width="17" height="257" fill="#4682b4"/>
<rect x="1066" y="124" width="17" height="256" fill="#4682b4"/>
<rect x="1084" y="114" width="17" height="266" fill="#4682b4"/>
<rect x="1102" y="117" width="17" height="263" fill="#4682b4"/>
</svg>