<svg xmlns="http://www.w3.org/2000/svg" width="640" height="420">
<text x="20" y="24" font-size="16">S3_pair Lift@K: B4 vs B2</text>
<line x1="50" y1="370" x2="590" y2="370" stroke="black"/>
<line x1="50" y1="370" x2="50" y2="50" stroke="black"/>
<circle cx="50.0" cy="112.3" r="2" fill="#1f77b4" opacity="0.2"/>
<circle cx="106.8" cy="112.3" r="2" fill="#1f77b4" opacity="0.2"/>
<circle cx="163.7" cy="112.3" r="2" fill="#1f77b4" opacity="0.2"/>
<circle cx="305.8" cy="112.3" r="2" fill="#1f77b4" opacity="0.2"/>
<circle cx="590.0" cy="117.9" r="2" fill="#1f77b4" opacity="0.2"/>
<circle cx="50.0" cy="50.0" r="2" fill="#1f77b4" opacity="0.2"/>
<circle cx="106.8" cy="50.0" r="2" fill="#1f77b4" opacity="0.2"/>
<circle cx="163.7" cy="50.0" r="2" fill="#1f77b4" opacity="0.2"/>
<circle cx="305.8" cy="50.0" r="2" fill="#1f77b4" opacity="0.2"/>
<circle cx="590.0" cy="112.3" r="2" fill="#1f77b4" opacity="0.2"/>
<circle cx="50.0" cy="370.0" r="2" fill="#d62728" opacity="0.2"/>
<circle cx="106.8" cy="296.5" r="2" fill="#d62728" opacity="0.2"/>
<circle cx="163.7" cy="263.4" r="2" fill="#d62728" opacity="0.2"/>
<circle cx="305.8" cy="249.6" r="2" fill="#d62728" opacity="0.2"/>
<circle cx="590.0" cy="228.2" r="2" fill="#d62728" opacity="0.2"/>
<circle cx="50.0" cy="183.0" r="2" fill="#d62728" opacity="0.2"/>
<circle cx="106.8" cy="201.5" r="2" fill="#d62728" opacity="0.2"/>
<circle cx="163.7" cy="192.6" r="2" fill="#d62728" opacity="0.2"/>
<circle cx="305.8" cy="200.4" r="2" fill="#d62728" opacity="0.2"/>
<circle cx="590.0" cy="201.5" r="2" fill="#d62728" opacity="0.2"/>
<polyline fill="none" stroke="#1f77b4" stroke-width="2" points="50.0,82.5 106.8,82.5 163.7,82.5 305.8,82.5 590.0,113.8"/>
<line x1="450" y1="35" x2="470" y2="35" stroke="#1f77b4" stroke-width="2"/>
<text x="474" y="39" font-size="11">B4</text>
<polyline fill="none" stroke="#d62728" stroke-width="2" points="50.0,262.3 106.8,235.6 163.7,230.3 305.8,224.9 590.0,212.9"/>
<line x1="450" y1="51" x2="470" y2="51" stroke="#d62728" stroke-width="2"/>
<text x="474" y="55" font-size="11">B2</text>
</svg>